<?xml version="1.0" encoding="UTF-8"?>
<!DOCTYPE svg PUBLIC "-//W3C//DTD SVG 1.1//EN" "http://www.w3.org/Graphics/SVG/1.1/DTD/svg11.dtd">
<!-- Creator: CorelDRAW 2020 (64-Bit) -->
<svg xmlns="http://www.w3.org/2000/svg" xml:space="preserve" width="11.7389mm" height="10.76mm" version="1.1" style="shape-rendering:geometricPrecision; text-rendering:geometricPrecision; image-rendering:optimizeQuality; fill-rule:evenodd; clip-rule:evenodd"
viewBox="0 0 127.72 117.07"
 xmlns:xlink="http://www.w3.org/1999/xlink"
 xmlns:xodm="http://www.corel.com/coreldraw/odm/2003">
 <defs>
  <style type="text/css">
   <![CDATA[
    .fil2 {fill:#048BD3}
    .fil1 {fill:#049BE6}
    .fil3 {fill:#057BBD}
    .fil0 {fill:#B5B6B6}
   ]]>
  </style>
 </defs>
 <g id="Слой_x0020_1">
  <metadata id="CorelCorpID_0Corel-Layer"/>
  <g id="_2304178919088">
   <path class="fil0" d="M6.89 67.29l28.3 -10.41c3.73,-1.47 27.65,-10.38 28.84,-10.38 4.42,-0.01 49.45,19 57.16,20.79 -1.09,-3 -0.01,-0.78 -2.94,-3.51l-54.21 -48.11 -42.94 38.18c-3.02,2.33 -4.33,4.38 -7.11,6.71 -3.22,2.69 -4.73,3.18 -7.1,6.73z"/>
   <path class="fil1" d="M75.92 70.06c2.62,5.27 1,19.52 0.94,26.73l0.09 19.36c16.95,0 13.82,-0.8 13.82,-33.19l5.53 0 0 33.19c17.82,0 14.75,0.18 14.75,-33.19l16.59 0c0,-6.33 0.89,-10.54 -3.33,-13.27 -4.33,-2.8 -33.01,-1.44 -40.97,-1.53 -4.73,-0.05 -5.35,-0.81 -7.43,1.9z"/>
   <path class="fil1" d="M1.36 67.29c2.66,-1.78 5.24,-3.81 7.61,-6.22l55.07 -48.17c5.78,3.87 14.51,12.81 19.89,16.98l27.51 24.11c3.43,2.67 4.76,4.58 7.77,6.98 4.86,3.89 5.15,5.44 8.43,6.32 -2.6,-4.91 -7.09,-18.98 -10.38,-21.89l-8.45 -7.22c-3.6,-2.79 -5.45,-4.81 -8.97,-7.63l-30.5 -26.65c-1.95,-1.73 -2.23,-2.46 -4.39,-3.9 -3.98,1.06 -13.6,10.78 -18.05,14.22l-17.68 15.5c-11.62,10.87 -17.62,12.74 -23.24,25.61 -1.65,3.79 -3.66,7.76 -4.63,11.96z"/>
   <path class="fil2" d="M14.68 79.28l-0.41 23.05c3.47,1.52 6.25,6.17 8.29,9.22 -0.56,2.42 -0.84,2.71 -1.84,4.61 4.86,0 5.89,0.69 9.4,0.92l3.53 0c2.58,-0.22 3.62,-0.92 7.35,-0.92 -1.09,-4.1 -3.36,-1.23 1.65,-9.4 1.02,-1.67 1.74,-2.92 2.76,-4.61l3.12 -4.42c1.17,-4 0.84,-14.93 0.8,-20.35 -0.01,-1.1 0,-2.63 -0.15,-3.69 -0.37,-2.53 0.06,-1.4 -0.82,-2.7 -4.51,2.83 -16.02,24.94 -18.43,29.5 -1.65,-1.21 -6.72,-7.67 -7.37,-10.14l8.51 -10.85c1.94,-2.35 7.46,-8.94 8.08,-11.28 -2.79,0 -5.56,-0.02 -8.34,-0.05 -6.97,-0.07 -6.49,-0.48 -11.27,6.24 -2.17,3.05 -1.6,3.26 -4.87,4.87z"/>
   <path class="fil1" d="M48.36 70.98c0.88,1.29 0.45,0.17 0.82,2.7 0.15,1.06 0.15,2.59 0.15,3.69 0.03,5.41 0.36,16.35 -0.8,20.35 -0.16,2.31 -0.53,15.94 -0.01,17.36 0.38,1.03 1.46,1.65 2.87,2l7.95 0c1.84,-0.28 3.29,-0.66 3.66,-0.92 -0.06,-4.88 -0.1,-9.84 -0.14,-14.75 -0.06,-7.28 -0.18,-4.7 1.08,-9.86 0.38,-1.56 0.61,-0.04 0.09,-1.31l-0.96 -3.53c-0.09,-1.12 0,-3.4 0.02,-4.63 0.03,-2.84 0.25,-6.65 0.13,-9.36 -0.27,-6.2 -1.54,-4.49 -14.87,-4.49 -1.62,2.88 -0.48,0.87 -0,2.77z"/>
   <path class="fil1" d="M14.27 102.32l0.41 -23.05 0.57 -11.06c-19.21,-0 -14.81,4.24 -14.81,47.93l14.75 0c0,-4.58 0.62,-9.85 -0.92,-13.83z"/>
   <path class="fil2" d="M64.04 90.22c0.52,1.28 0.29,-0.25 -0.09,1.31 -1.26,5.16 -1.14,2.58 -1.08,9.86 0.04,4.92 0.08,9.87 0.14,14.75l2.87 0c0.64,-2.76 3.2,-6.63 4.66,-9.17 1.8,-3.14 3.91,-6.05 5.48,-9.52 -2.52,-1.84 -1.74,-0.71 -1.82,-5.19 -0.05,-2.4 0.08,-5.02 0.07,-7.46 -0.01,-4.69 0.28,-8.72 0.89,-12.9 -2.28,1.61 -4.15,6.05 -5.88,8.93 -1.58,2.64 -4.5,6.79 -5.24,9.39z"/>
   <path class="fil3" d="M75.15 71.9c-0.6,4.19 -0.9,8.21 -0.89,12.9 0.01,2.44 -0.11,5.06 -0.07,7.46 0.08,4.48 -0.7,3.35 1.82,5.19l0.84 -0.66c0.06,-7.21 1.68,-21.46 -0.94,-26.73l-0.77 1.84z"/>
  </g>
 </g>
</svg>
